<svg xmlns="http://www.w3.org/2000/svg" viewBox="0 0 38.5 38.56"><defs><style>.cls-1{fill:#fff;}</style></defs><g id="Layer_2" data-name="Layer 2"><g id="Layer_1-2" data-name="Layer 1"><path class="cls-1" d="M38.5,19.29a7.76,7.76,0,0,1-1,3.88C35.3,27,29.77,28.45,23.32,27a29.18,29.18,0,0,0,1-7.72,29.35,29.35,0,0,0-1.14-8.24C21.54,5.41,18.3,1.38,14.53,0a23.15,23.15,0,0,1,6.18,1A28.06,28.06,0,0,1,27,3.68C33.93,7.65,38.53,13.93,38.5,19.29Z"/><path class="cls-1" d="M22.07,10.84a30.4,30.4,0,0,0-13.75,8.1C4.24,23.2,2.37,28,3.09,32A26.06,26.06,0,0,1,0,19.29C0,11.35,3.13,4.22,7.79,1.56A7.74,7.74,0,0,1,11.66.49C16,.49,20.09,4.53,22.07,10.84Z"/><path class="cls-1" d="M36.51,25.87a26.13,26.13,0,0,1-9.47,9C20.34,38.77,12.71,39.68,8,37.12L7.81,37A7.75,7.75,0,0,1,4.93,34.2C2.74,30.41,4.22,24.88,8.69,20a29.56,29.56,0,0,0,6.19,4.73,29.63,29.63,0,0,0,7.7,3.13C28.3,29.27,33.43,28.47,36.51,25.87Z"/></g></g></svg>