<svg xmlns="http://www.w3.org/2000/svg" viewBox="0 0 88.93 60.56"><defs><style>.cls-1{fill:#fff;}</style></defs><g id="Layer_2" data-name="Layer 2"><g id="Layer_1-2" data-name="Layer 1"><path class="cls-1" d="M46.43,41.18V32.07a32,32,0,0,0-.15-3.64c.68-.08,2.15-.16,3.26-.16,2.51,0,3.87,1.15,3.87,2.88a3.25,3.25,0,0,1-2.12,3.19,3.19,3.19,0,0,1,2.88,3.13c0,2.57-2.12,4-4.63,4a27.85,27.85,0,0,1-3.11-.24m1.36-11.8v4.74a12.29,12.29,0,0,0,1.6.08,2.66,2.66,0,0,0,2.66-2.58c0-1.6-.76-2.43-2.66-2.43a6.27,6.27,0,0,0-1.6.19m0,5.74v5.05a6.24,6.24,0,0,0,2,.25c1.51,0,2.95-.68,2.95-2.74,0-1.51-1.28-2.64-3.11-2.64a15.7,15.7,0,0,0-1.83.08"/><path class="cls-1" d="M60.67,41.18l-.12-.85A3.49,3.49,0,0,1,58,41.42c-1.37,0-2.58-.68-2.58-2.28s1.28-2.37,3.42-2.58l1.67-.18v-.6c0-1.66-.46-2.41-2-2.41a2.86,2.86,0,0,0-2.28,1.2.75.75,0,0,1-.46-.76c0-.91,1.67-1.43,3-1.43,1.88,0,2.87.83,2.87,2.72,0,1.4-.07,2.76-.07,4a7.35,7.35,0,0,0,.23,2.11Zm-.14-1.67V37.2l-1.15.12a6.9,6.9,0,0,0-2.27.52A1.58,1.58,0,0,0,56.65,39c0,1,.61,1.51,1.66,1.51a3.36,3.36,0,0,0,2.22-1"/><path class="cls-1" d="M64.28,41.18c.08-1.2.08-2.43.08-3V35.72a27.49,27.49,0,0,0-.15-3.19h1.38v.92a4.53,4.53,0,0,1,2.8-1.07c1.83,0,2.82,1,2.82,2.95v2.82c0,.6,0,1.83.05,3H69.9c.08-1.2.08-2.43.08-3V36.48c0-2.28-.52-3-2.12-3a4.12,4.12,0,0,0-2.27.78v3.87c0,.6,0,1.83.06,3Z"/><path class="cls-1" d="M73,37.08a4.54,4.54,0,0,1,4.55-4.7,4.85,4.85,0,0,1,2.14.52,1.31,1.31,0,0,1-.6,1.07c-.78,0-.84-.52-2.06-.52s-2.75,1.12-2.75,3.32c0,2.43,1.23,3.58,3,3.58a3.61,3.61,0,0,0,2.28-.76c.07,0,.15.08.15.31a.91.91,0,0,1-.15.52,3.35,3.35,0,0,1-2.51,1c-2.51,0-4-1.75-4-4.34"/><path class="cls-1" d="M80.57,37.08c0-2.88,1.9-4.78,4.34-4.78s4,1.75,4,4.33a4.54,4.54,0,0,1-4.41,4.86c-2.43,0-4-1.82-4-4.41m7-.23c0-2.51-1.25-3.64-2.8-3.64s-2.82,1.52-2.82,3.64c0,2.51,1.3,3.73,2.82,3.73s2.8-1.59,2.8-3.73"/><path class="cls-1" d="M49.71,51.21c0-.92,0-2.4-.13-3.64h3.71V57.9h2.83a5.07,5.07,0,0,0,2.27-.31v.08a2.87,2.87,0,0,1-1.23,2.66H49.71Z"/><path class="cls-1" d="M58.87,56.23c0-3.12,1.94-4.71,5-4.71,1.9,0,3.73.76,3.73,3.71a2.23,2.23,0,0,1-.16.92,4.76,4.76,0,0,1-1.75.23H62.27c0,1.71,1.09,2,2.14,2a3.9,3.9,0,0,0,2.51-.83c.17,0,.29.27.29.76a3.6,3.6,0,0,1-.16,1.14,4.73,4.73,0,0,1-3.32,1.07c-2.84,0-4.86-1.09-4.86-4.33m3.51-1.45h2.4c0-1-.23-1.43-1.13-1.43-.66,0-1.13.44-1.27,1.43"/><path class="cls-1" d="M78.62,55.86c0,3.15-2.38,4.7-5.31,4.7s-4.87-1.41-4.87-4.41,2.37-4.63,5.23-4.63,5,1.32,5,4.34m-6.87-5.49V50a1.64,1.64,0,0,1,.45-1.38l3.65-2.8h.08a4.73,4.73,0,0,1-.39,2.43L71.9,50.37Zm3.44,5.7c0-1.71-.58-2.64-1.67-2.64-1.25,0-1.68.93-1.68,2.49s.61,2.74,1.68,2.74c1.26,0,1.67-1,1.67-2.59"/><path class="cls-1" d="M79.51,60.33a16.21,16.21,0,0,0,.24-3V54.71a14.38,14.38,0,0,0-.24-3h3.43V53a3.07,3.07,0,0,1,2.72-1.44c1.83,0,3.06.89,3.06,3.26V57.3a18.76,18.76,0,0,0,.21,3H85.21a16.21,16.21,0,0,0,.24-3V55a1.08,1.08,0,0,0-1.23-1.23,1.74,1.74,0,0,0-1.2.53v3a17.94,17.94,0,0,0,.21,3Z"/><path class="cls-1" d="M6.89,60.33V51.21a34.53,34.53,0,0,0-.14-3.64c.68-.08,4-.16,5.08-.16,2.67,0,4.73.49,4.73,2.88a3.27,3.27,0,0,1-2.22,3.19c1.81.35,3,1.34,3,3,0,3-2.5,4.1-5.77,4.1-1,0-4-.15-4.65-.23m3.58-10.68v3.06h.6c1.34,0,1.91-.58,1.91-1.8,0-.86-.66-1.31-1.75-1.31-.26,0-.51,0-.76,0m0,5.19v3.47a7.87,7.87,0,0,0,1,0c1.29,0,2.2-.59,2.2-2,0-1-.74-1.53-2.2-1.53-.29,0-.62,0-1,.06"/><path class="cls-1" d="M32.71,60.33h-.08V51.21a34.53,34.53,0,0,0-.14-3.64h.22c.37,0,2.86-.16,4.72-.16,4.67,0,7.67,2,7.67,6.31,0,4.53-2.74,6.84-7.82,6.84a38.77,38.77,0,0,1-4.57-.23m3.5-10.51v8.27a5.54,5.54,0,0,0,1.15.12c2.72,0,4-1.52,4-4.26,0-3.07-1.38-4.18-4.1-4.18-.3,0-.68,0-1.07,0"/><path class="cls-1" d="M30.6,47.57V60.33H27V55H22.31v5.37H18.73V51.21c0-.92,0-2.4-.13-3.64h3.71v4.88H27V51.21h0a34.53,34.53,0,0,0-.14-3.64Z"/><path class="cls-1" d="M38.5,19.29a7.76,7.76,0,0,1-1,3.88C35.3,27,29.77,28.45,23.32,27a29.18,29.18,0,0,0,1-7.72,29.35,29.35,0,0,0-1.14-8.24C21.54,5.41,18.3,1.38,14.53,0a23.15,23.15,0,0,1,6.18,1A28.06,28.06,0,0,1,27,3.68C33.93,7.65,38.53,13.93,38.5,19.29Z"/><path class="cls-1" d="M22.07,10.84a30.4,30.4,0,0,0-13.75,8.1C4.24,23.2,2.37,28,3.09,32A26.06,26.06,0,0,1,0,19.29C0,11.35,3.13,4.22,7.79,1.56A7.74,7.74,0,0,1,11.66.49C16,.49,20.09,4.53,22.07,10.84Z"/><path class="cls-1" d="M36.51,25.87a26.13,26.13,0,0,1-9.47,9C20.34,38.77,12.71,39.68,8,37.12L7.81,37A7.75,7.75,0,0,1,4.93,34.2C2.74,30.41,4.22,24.88,8.69,20a29.56,29.56,0,0,0,6.19,4.73,29.63,29.63,0,0,0,7.7,3.13C28.3,29.27,33.43,28.47,36.51,25.87Z"/></g></g></svg>