<svg xmlns="http://www.w3.org/2000/svg" viewBox="0 0 89.43 61.07"><defs><style>.cls-1{fill:#fff;}.cls-2{fill:#d31245;}.cls-3{fill:#003e7e;}</style></defs><g id="Layer_2" data-name="Layer 2"><g id="Layer_1-2" data-name="Layer 1"><path class="cls-1" d="M46.93,41.69V32.57a29.84,29.84,0,0,0-.16-3.63c.68-.08,2.16-.16,3.27-.16,2.51,0,3.87,1.15,3.87,2.88a3.25,3.25,0,0,1-2.12,3.19A3.19,3.19,0,0,1,54.67,38c0,2.56-2.12,3.94-4.63,3.94a28,28,0,0,1-3.11-.23m1.36-11.8v4.74a12.21,12.21,0,0,0,1.6.08,2.66,2.66,0,0,0,2.66-2.58c0-1.6-.76-2.43-2.66-2.43a5.85,5.85,0,0,0-1.6.19m0,5.74v5a6.47,6.47,0,0,0,2,.25c1.52,0,3-.68,3-2.74,0-1.52-1.28-2.64-3.11-2.64a15.7,15.7,0,0,0-1.83.08"/><path class="cls-1" d="M61.17,41.69l-.12-.86a3.45,3.45,0,0,1-2.53,1.09c-1.38,0-2.58-.68-2.58-2.27s1.28-2.37,3.42-2.58L61,36.89v-.6c0-1.66-.46-2.42-2-2.42a2.86,2.86,0,0,0-2.28,1.21.75.75,0,0,1-.46-.76c0-.91,1.67-1.44,3-1.44,1.88,0,2.87.84,2.87,2.73,0,1.4-.08,2.76-.08,4a7.12,7.12,0,0,0,.24,2.12ZM61,40V37.7l-1.15.12a7.13,7.13,0,0,0-2.27.53,1.58,1.58,0,0,0-.47,1.15c0,1,.62,1.51,1.67,1.51A3.41,3.41,0,0,0,61,40"/><path class="cls-1" d="M64.78,41.69c.08-1.2.08-2.43.08-3V36.23A27.4,27.4,0,0,0,64.71,33h1.38V34a4.6,4.6,0,0,1,2.8-1.07c1.83,0,2.82,1,2.82,3v2.82c0,.6,0,1.83.05,3H70.4c.08-1.2.08-2.43.08-3V37c0-2.28-.52-3-2.12-3a4.12,4.12,0,0,0-2.27.78v3.87c0,.6,0,1.83.06,3Z"/><path class="cls-1" d="M73.5,37.59a4.55,4.55,0,0,1,4.55-4.71,4.87,4.87,0,0,1,2.14.53,1.32,1.32,0,0,1-.6,1.07c-.78,0-.84-.53-2.06-.53s-2.75,1.13-2.75,3.33c0,2.43,1.23,3.58,3,3.58A3.56,3.56,0,0,0,80,40.1c.08,0,.16.07.16.31a.87.87,0,0,1-.16.52,3.36,3.36,0,0,1-2.5,1c-2.51,0-4-1.75-4-4.33"/><path class="cls-1" d="M81.07,37.59c0-2.88,1.9-4.78,4.34-4.78s4,1.75,4,4.33A4.54,4.54,0,0,1,85,42c-2.42,0-3.94-1.83-3.94-4.41m7-.24c0-2.5-1.25-3.63-2.8-3.63s-2.82,1.52-2.82,3.63c0,2.52,1.3,3.74,2.82,3.74s2.8-1.59,2.8-3.74"/><path class="cls-1" d="M50.21,51.72c0-.92,0-2.4-.13-3.64h3.71V58.41h2.82a4.94,4.94,0,0,0,2.28-.32v.08a2.87,2.87,0,0,1-1.23,2.67H50.21Z"/><path class="cls-1" d="M59.37,56.74c0-3.12,1.94-4.71,5-4.71,1.91,0,3.74.75,3.74,3.71a2.27,2.27,0,0,1-.16.92,4.79,4.79,0,0,1-1.75.23H62.77c0,1.71,1.09,2,2.14,2a3.9,3.9,0,0,0,2.51-.84c.17,0,.29.28.29.77A3.6,3.6,0,0,1,67.55,60a4.73,4.73,0,0,1-3.32,1.07c-2.84,0-4.86-1.09-4.86-4.33m3.51-1.45h2.4c0-1-.23-1.44-1.13-1.44-.66,0-1.13.45-1.27,1.44"/><path class="cls-1" d="M79.11,56.37c0,3.15-2.37,4.7-5.31,4.7s-4.86-1.42-4.86-4.41c0-3.15,2.37-4.63,5.23-4.63s4.94,1.32,4.94,4.34m-6.86-5.49v-.37a1.62,1.62,0,0,1,.45-1.38l3.65-2.8h.08A4.75,4.75,0,0,1,76,48.76L72.4,50.88Zm3.44,5.7c0-1.71-.58-2.64-1.67-2.64-1.25,0-1.68.93-1.68,2.48,0,1.72.61,2.75,1.68,2.75,1.26,0,1.67-1,1.67-2.59"/><path class="cls-1" d="M80,60.84a16.25,16.25,0,0,0,.24-3V55.22a14.51,14.51,0,0,0-.24-3h3.43v1.29A3,3,0,0,1,86.16,52c1.83,0,3,.89,3,3.26V57.8a19,19,0,0,0,.22,3H85.71a16.25,16.25,0,0,0,.24-3V55.53a1.08,1.08,0,0,0-1.23-1.23,1.73,1.73,0,0,0-1.2.53v3a18.05,18.05,0,0,0,.21,3Z"/><path class="cls-1" d="M7.39,60.84V51.72a34.53,34.53,0,0,0-.14-3.64c.68-.08,4-.16,5.08-.16,2.66,0,4.72.49,4.72,2.88A3.27,3.27,0,0,1,14.84,54c1.81.35,3,1.34,3,3,0,3-2.5,4.1-5.77,4.1-1,0-4-.16-4.65-.23M11,50.16v3.05a5.53,5.53,0,0,0,.6,0c1.34,0,1.91-.58,1.91-1.81,0-.85-.67-1.3-1.75-1.3-.26,0-.51,0-.76,0m0,5.19v3.47a7.87,7.87,0,0,0,1,0c1.28,0,2.2-.59,2.2-2,0-1-.74-1.52-2.2-1.52a9.32,9.32,0,0,0-1,.06"/><path class="cls-1" d="M33.21,60.84h-.08V51.72A34.53,34.53,0,0,0,33,48.08h.22c.37,0,2.86-.16,4.72-.16,4.67,0,7.67,1.95,7.67,6.3,0,4.54-2.75,6.85-7.82,6.85a41.07,41.07,0,0,1-4.57-.23m3.5-10.51V58.6a5.54,5.54,0,0,0,1.15.12c2.72,0,4-1.52,4-4.26,0-3.08-1.38-4.18-4.1-4.18a10.53,10.53,0,0,0-1.07,0"/><path class="cls-1" d="M31.1,48.08V60.84H27.52V55.47H22.81v5.37H19.23V51.72c0-.92,0-2.4-.13-3.64h3.71V53h4.71V51.72h0a34.53,34.53,0,0,0-.14-3.64Z"/><path class="cls-2" d="M27.79,3.75C20.68-.35,13-1.06,8.31,1.49a8.06,8.06,0,0,1,3.85-1c4.89,0,9.11,4.6,11,11.21a29,29,0,0,1,1.12,8.1,28.91,28.91,0,0,1-1.12,8.09c6.69,1.64,12.78.28,15.23-4a8.27,8.27,0,0,0,1.07-4.12C39.53,14.4,35,7.94,27.79,3.75"/><path class="cls-3" d="M12.16.49A8.3,8.3,0,0,0,8,1.63C3.35,4.31,0,11.43,0,19.8S3.36,35.3,8.05,38A8.23,8.23,0,0,1,5,35C2.55,30.72,4.42,24.77,9.18,19.8a29.82,29.82,0,0,1,14-8.1C21.27,5.08,17.05.49,12.16.49"/><path class="cls-1" d="M38.43,23.93c-2.45,4.24-8.54,5.6-15.23,4a28.87,28.87,0,0,1-7.57-3.08,28.93,28.93,0,0,1-6.45-5C4.42,24.77,2.55,30.72,5,35a8.23,8.23,0,0,0,3.05,3l.27.14c4.69,2.54,12.37,1.83,19.47-2.27s11.73-10.64,11.71-16a8.27,8.27,0,0,1-1.07,4.12"/></g></g></svg>