<svg xmlns="http://www.w3.org/2000/svg" viewBox="0 0 180.98 39.8"><defs><style>.cls-1{fill:#54b948;}.cls-2{fill:#d31245;}.cls-3{fill:#003e7e;}</style></defs><g id="Layer_2" data-name="Layer 2"><g id="Layer_1-2" data-name="Layer 1"><path class="cls-1" d="M141.76,17.17c0-.92,0-2.4-.13-3.64h3.71V23.86h2.83a4.92,4.92,0,0,0,2.27-.32v.08a2.87,2.87,0,0,1-1.23,2.67h-7.45Z"/><path class="cls-1" d="M150.92,22.19c0-3.12,1.94-4.71,5-4.71,1.9,0,3.73.76,3.73,3.71a2.48,2.48,0,0,1-.15.92,4.83,4.83,0,0,1-1.75.23h-3.43c0,1.71,1.09,2,2.14,2a3.82,3.82,0,0,0,2.51-.84c.18,0,.29.28.29.77a4,4,0,0,1-.15,1.14,4.74,4.74,0,0,1-3.33,1.07c-2.84,0-4.86-1.09-4.86-4.33m3.52-1.45h2.39c0-1-.23-1.44-1.13-1.44-.66,0-1.13.45-1.26,1.44"/><path class="cls-1" d="M170.67,21.82c0,3.15-2.38,4.7-5.31,4.7s-4.87-1.42-4.87-4.41c0-3.15,2.38-4.63,5.24-4.63s4.94,1.32,4.94,4.34m-6.87-5.49V16a1.66,1.66,0,0,1,.45-1.38l3.65-2.8H168a4.75,4.75,0,0,1-.39,2.43L164,16.33Zm3.45,5.7c0-1.71-.59-2.65-1.68-2.65s-1.67.94-1.67,2.49c0,1.72.6,2.75,1.67,2.75,1.26,0,1.68-1,1.68-2.59"/><path class="cls-1" d="M171.57,26.29a17,17,0,0,0,.23-3V20.67a15.13,15.13,0,0,0-.23-3H175v1.29a3,3,0,0,1,2.72-1.44c1.83,0,3.06.89,3.06,3.26v2.51a18.8,18.8,0,0,0,.21,3h-3.71a17,17,0,0,0,.23-3V21a1.08,1.08,0,0,0-1.22-1.23,1.76,1.76,0,0,0-1.21.53v3a18.05,18.05,0,0,0,.21,3Z"/><path class="cls-1" d="M98.94,26.29V17.17a34.53,34.53,0,0,0-.14-3.64c.68-.08,4-.16,5.08-.16,2.66,0,4.72.49,4.72,2.88a3.27,3.27,0,0,1-2.21,3.19c1.81.35,3,1.34,3,3,0,3-2.51,4.1-5.77,4.1-1,0-4-.15-4.65-.23m3.58-10.68v3.05a5.35,5.35,0,0,0,.6,0c1.34,0,1.9-.58,1.9-1.81,0-.85-.66-1.3-1.75-1.3-.25,0-.5,0-.75,0m0,5.19v3.47a7.87,7.87,0,0,0,1,0c1.28,0,2.2-.59,2.2-2,0-1-.74-1.52-2.2-1.52a9.17,9.17,0,0,0-1,.06"/><path class="cls-1" d="M124.75,26.29h-.07V17.17a34.53,34.53,0,0,0-.14-3.64h.21c.38,0,2.87-.16,4.73-.16,4.67,0,7.67,2,7.67,6.3,0,4.54-2.74,6.85-7.82,6.85a39.08,39.08,0,0,1-4.58-.23m3.51-10.51v8.27a5.54,5.54,0,0,0,1.15.12c2.72,0,4-1.52,4-4.26,0-3.08-1.38-4.18-4.1-4.18a10.66,10.66,0,0,0-1.07,0"/><path class="cls-1" d="M122.65,13.53V26.29h-3.58V20.92h-4.71v5.37h-3.58V17.17a34.53,34.53,0,0,0-.14-3.64h3.72v4.88h4.71V17.17a34.53,34.53,0,0,0-.14-3.64Z"/><path class="cls-1" d="M51.57,26.29V17.17a32,32,0,0,0-.15-3.64c.68-.07,2.16-.15,3.27-.15,2.51,0,3.87,1.14,3.87,2.87a3.23,3.23,0,0,1-2.12,3.19,3.19,3.19,0,0,1,2.87,3.13c0,2.57-2.11,3.95-4.62,3.95a28.4,28.4,0,0,1-3.12-.23m1.37-11.8v4.74a12.07,12.07,0,0,0,1.59.08,2.67,2.67,0,0,0,2.67-2.59c0-1.6-.76-2.43-2.67-2.43a5.72,5.72,0,0,0-1.59.2m0,5.73v5.06a6.47,6.47,0,0,0,2,.25c1.52,0,3-.68,3-2.74,0-1.52-1.29-2.65-3.12-2.65a15.63,15.63,0,0,0-1.82.08"/><path class="cls-1" d="M65.82,26.29l-.12-.86a3.49,3.49,0,0,1-2.53,1.09c-1.38,0-2.59-.68-2.59-2.28s1.29-2.37,3.43-2.58l1.67-.17v-.61c0-1.65-.47-2.41-2-2.41a2.86,2.86,0,0,0-2.27,1.21.76.76,0,0,1-.47-.76c0-.92,1.68-1.44,3.06-1.44,1.88,0,2.87.84,2.87,2.72,0,1.4-.08,2.76-.08,4A7.15,7.15,0,0,0,67,26.29Zm-.14-1.67V22.3l-1.15.12a7.25,7.25,0,0,0-2.28.52,1.6,1.6,0,0,0-.46,1.15,1.46,1.46,0,0,0,1.67,1.52,3.41,3.41,0,0,0,2.22-1"/><path class="cls-1" d="M69.43,26.29c.08-1.21.08-2.43.08-3V20.82a27.49,27.49,0,0,0-.15-3.19h1.38v.92a4.57,4.57,0,0,1,2.8-1.07c1.83,0,2.81,1,2.81,2.95v2.82c0,.61,0,1.83.06,3H75.05c.08-1.21.08-2.43.08-3V21.58c0-2.27-.52-3-2.12-3a4.09,4.09,0,0,0-2.27.77v3.87c0,.61,0,1.83.06,3Z"/><path class="cls-1" d="M78.15,22.18a4.54,4.54,0,0,1,4.55-4.7,4.89,4.89,0,0,1,2.14.52,1.29,1.29,0,0,1-.6,1.07c-.78,0-.84-.52-2.06-.52s-2.75,1.13-2.75,3.32c0,2.43,1.23,3.58,3,3.58a3.56,3.56,0,0,0,2.27-.76c.08,0,.16.08.16.31a.91.91,0,0,1-.16.53,3.34,3.34,0,0,1-2.5,1c-2.52,0-4-1.75-4-4.34"/><path class="cls-1" d="M85.72,22.18c0-2.87,1.9-4.78,4.34-4.78s4,1.75,4,4.34a4.54,4.54,0,0,1-4.42,4.86c-2.42,0-3.94-1.83-3.94-4.42m7-.23c0-2.51-1.25-3.63-2.8-3.63S87.08,19.83,87.08,22c0,2.51,1.3,3.74,2.82,3.74s2.8-1.6,2.8-3.74"/><path class="cls-2" d="M27.94,3.77C20.79-.35,13.07-1.07,8.35,1.49a8.28,8.28,0,0,1,3.87-1c4.92,0,9.16,4.61,11.1,11.26a29.27,29.27,0,0,1,1.13,8.14A29.32,29.32,0,0,1,23.32,28c6.73,1.64,12.84.28,15.31-4a8.39,8.39,0,0,0,1.08-4.15c0-5.43-4.49-11.93-11.77-16.14"/><path class="cls-3" d="M12.22.5A8.3,8.3,0,0,0,8.08,1.64C3.37,4.33,0,11.49,0,19.9S3.38,35.48,8.1,38.17a8.29,8.29,0,0,1-3.08-3C2.56,30.88,4.44,24.9,9.23,19.9a30,30,0,0,1,14.09-8.14C21.38,5.11,17.14.5,12.22.5"/><path class="cls-1" d="M38.63,24.06c-2.47,4.26-8.58,5.62-15.31,4a29.69,29.69,0,0,1-7.61-3.1,29.22,29.22,0,0,1-6.48-5c-4.79,5-6.67,11-4.21,15.24a8.29,8.29,0,0,0,3.08,3l.27.14C13.08,40.86,20.8,40.15,27.94,36s11.78-10.7,11.77-16.12a8.39,8.39,0,0,1-1.08,4.15"/></g></g></svg>